<svg width="350" height="269" viewBox="0 0 350 269" fill="none" xmlns="http://www.w3.org/2000/svg">
<g clip-path="url(#clip0_1386_143)">
<path d="M94.246 34.7958C90.2926 34.7958 86.9011 33.0944 84.065 29.6835C81.2421 26.2567 79.8341 22.1589 79.8341 17.382C79.8341 12.6371 81.2421 8.55518 84.065 5.14429C86.9011 1.71743 90.2926 0 94.246 0C97.8951 0 101.055 1.45382 103.739 4.34549C101.148 8.05194 99.852 12.3974 99.852 17.382C99.852 22.3905 101.148 26.8079 103.739 30.6421C100.949 33.414 97.7895 34.7958 94.246 34.7958ZM117.146 34.7958C113.213 34.7958 109.828 33.0944 106.992 29.6835C104.149 26.2567 102.734 22.1589 102.734 17.382C102.734 12.6371 104.149 8.55518 106.992 5.14429C109.828 1.71743 113.213 0 117.146 0C121.073 0 124.458 1.71743 127.301 5.14429C130.137 8.55518 131.558 12.6371 131.558 17.382C131.558 22.1589 130.137 26.2567 127.301 29.6835C124.458 33.0944 121.073 34.7958 117.146 34.7958ZM143.088 87.2293C143.088 90.6003 142.943 93.8435 142.664 96.9748H143.088V131.611H134.018C128.054 144.6 119.619 154.84 108.711 162.317C97.8158 169.81 85.4004 173.564 71.4778 173.564C61.092 173.564 51.5523 171.439 42.8654 167.205C34.1721 162.964 26.6092 156.988 20.1767 149.28C13.7376 141.564 8.76614 132.458 5.26233 121.961C1.75191 111.441 0 99.8664 0 87.2293H28.6651C28.6651 97.542 30.5559 106.592 34.3506 114.389C38.1585 122.169 43.3217 128.192 49.8467 132.474C56.3849 136.772 63.7363 138.928 71.9009 138.928C76.9914 138.928 81.7447 138.049 86.1541 136.308C90.5769 134.558 94.5699 132.066 98.1331 128.831C93.4262 127.425 89.0497 124.957 85.017 121.418C80.9777 117.887 77.7582 113.27 75.365 107.583C72.9652 101.895 71.7687 95.1136 71.7687 87.2293C71.7687 77.7076 73.4941 69.7834 76.9517 63.457C80.4025 57.1305 84.8187 52.3696 90.2 49.1744C95.5748 45.9791 101.201 44.3336 107.071 44.2217C113.114 44.0939 118.872 45.6276 124.339 48.8228C129.82 52.0181 134.315 56.8109 137.826 63.2013C141.329 69.5758 143.088 77.5799 143.088 87.2293ZM107.494 77.2922C105.485 77.2922 103.607 78.107 101.862 79.7206C100.13 81.3422 99.2702 83.8425 99.2702 87.2293C99.2702 90.3606 100.064 92.7411 101.65 94.3547C103.237 95.9762 104.989 96.847 106.913 96.9748H107.494C109.306 96.847 110.985 96.128 112.519 94.8021C114.066 93.46 115.037 91.511 115.427 88.9548C115.513 88.7231 115.56 88.4355 115.56 88.0921C115.56 87.7326 115.56 87.445 115.56 87.2293C115.56 83.8425 114.713 81.3422 113.021 79.7206C111.342 78.107 109.504 77.2922 107.494 77.2922Z" fill="#EFDA99"/>
<path d="M133.014 131.611V96.9748H171.623V62.4984H200.288V131.611H133.014ZM159.67 176.695C155.716 176.695 152.325 174.978 149.489 171.551C146.666 168.14 145.258 164.05 145.258 159.282C145.258 154.528 146.666 150.438 149.489 147.011C152.325 143.577 155.716 141.868 159.67 141.868C163.213 141.868 166.374 143.257 169.163 146.054C166.572 149.888 165.275 154.297 165.275 159.282C165.275 164.282 166.572 168.643 169.163 172.35C166.479 175.241 163.319 176.695 159.67 176.695ZM182.569 176.695C178.636 176.695 175.252 174.978 172.415 171.551C169.572 168.14 168.159 164.05 168.159 159.282C168.159 154.528 169.572 150.438 172.415 147.011C175.252 143.577 178.636 141.868 182.569 141.868C186.498 141.868 189.882 143.577 192.725 147.011C195.561 150.438 196.981 154.528 196.981 159.282C196.981 164.05 195.561 168.14 192.725 171.551C189.882 174.978 186.498 176.695 182.569 176.695Z" fill="#EFDA99"/>
<path d="M249.72 34.7958C245.786 34.7958 242.402 33.0944 239.566 29.6835C236.722 26.2567 235.308 22.1589 235.308 17.382C235.308 12.6371 236.722 8.55518 239.566 5.14429C242.402 1.71743 245.786 0 249.72 0C253.646 0 257.032 1.71743 259.874 5.14429C262.71 8.55518 264.132 12.6371 264.132 17.382C264.132 22.1589 262.71 26.2567 259.874 29.6835C257.032 33.0944 253.646 34.7958 249.72 34.7958ZM190.221 131.611V96.9748H215.713C215.515 95.465 215.35 93.9313 215.211 92.3737C215.066 90.8 214.998 89.1943 214.998 87.5489C214.998 77.6916 216.724 69.5119 220.182 63.0096C223.632 56.5153 228.095 51.6507 233.563 48.4075C239.043 45.1484 244.762 43.5748 250.725 43.6786C256.681 43.6786 262.347 45.3081 267.728 48.5673C273.102 51.8103 277.519 56.6831 280.976 63.2013C284.448 69.7035 286.186 77.8194 286.186 87.5489C286.186 97.3102 284.448 105.466 280.976 112.024C277.519 118.59 273.077 123.495 267.649 126.754C262.235 129.997 256.549 131.611 250.592 131.611H190.221ZM250.592 97.6458C252.602 97.6458 254.466 96.807 256.199 95.1215C257.924 93.444 258.79 90.9198 258.79 87.5489C258.79 84.186 257.95 81.6937 256.278 80.072C254.598 78.4584 252.747 77.6438 250.725 77.6438C248.609 77.6438 246.712 78.4584 245.039 80.072C243.36 81.6937 242.527 84.186 242.527 87.5489C242.527 90.9198 243.36 93.4201 245.039 95.0576C246.712 96.6791 248.563 97.5419 250.592 97.6458Z" fill="#EFDA99"/>
<path d="M289.338 194.812L269.188 170.433L329.849 96.9746L350 121.514L289.338 194.812Z" fill="#EFDA99"/>
<path d="M87.6852 232.082C90.8463 232.082 93.1762 232.83 94.6747 234.312C96.1838 235.78 96.941 238.023 96.941 241.027C96.941 242.386 96.7397 243.575 96.3479 244.588C95.9507 245.608 95.4213 246.478 94.7594 247.198C94.0922 247.905 93.3827 248.475 92.6202 248.911L99.4614 261.905H93.9969L88.4688 250.461H85.8213V261.905H80.9075V232.082H87.6852ZM87.3251 237.275H85.8213V245.323H87.4098C89.046 245.323 90.2109 244.982 90.9045 244.29C91.6089 243.582 91.9636 242.549 91.9636 241.189C91.9636 239.776 91.5823 238.771 90.8199 238.173C90.0679 237.574 88.9031 237.275 87.3251 237.275Z" fill="#FFEEB9"/>
<path d="M139.755 261.905L138.082 254.81H129.609L127.915 261.905H122.62L130.817 231.975H136.832L145.071 261.905H139.755ZM136.896 249.508L135.201 242.576C135.1 242.108 134.957 241.51 134.777 240.782C134.608 240.062 134.438 239.328 134.269 238.58C134.099 237.819 133.957 237.16 133.845 236.596C133.729 237.16 133.581 237.861 133.401 238.689C133.215 239.504 133.04 240.286 132.871 241.027C132.712 241.754 132.596 242.271 132.511 242.576L130.859 249.508H136.896Z" fill="#FFEEB9"/>
<path d="M176.004 261.905H171.154V232.082H184.455V237.275H176.004V244.942H183.883V250.134H176.004V261.905Z" fill="#FFEEB9"/>
<path d="M220.862 261.905H210.292V258.317L213.131 256.631V237.358L210.292 235.671V232.082H220.862V235.671L218.045 237.358V256.631L220.862 258.317V261.905Z" fill="#FFEEB9"/>
<path d="M269.092 246.953C269.092 250.29 268.616 253.192 267.673 255.652C266.742 258.099 265.301 259.88 263.352 260.981L268.944 269H262.632L258.375 262.313H258.015C255.5 262.313 253.424 261.681 251.789 260.409C250.146 259.125 248.935 257.331 248.145 255.027C247.35 252.709 246.959 250.011 246.959 246.926C246.959 243.827 247.35 241.136 248.145 238.852C248.935 236.568 250.146 234.795 251.789 233.524C253.424 232.26 255.516 231.621 258.058 231.621C260.567 231.621 262.637 232.26 264.263 233.524C265.884 234.795 267.09 236.583 267.885 238.879C268.69 241.183 269.092 243.874 269.092 246.953ZM252.127 246.953C252.127 250.073 252.594 252.526 253.525 254.321C254.457 256.115 255.95 257.012 258.015 257.012C260.117 257.012 261.621 256.115 262.527 254.321C263.442 252.526 263.903 250.073 263.903 246.953C263.903 243.84 263.442 241.38 262.527 239.586C261.621 237.792 260.133 236.895 258.058 236.895C255.966 236.895 254.457 237.792 253.525 239.586C252.594 241.38 252.127 243.84 252.127 246.953Z" fill="#FFEEB9"/>
</g>
<defs>
<clipPath id="clip0_1386_143">
<rect width="350" height="269" fill="white"/>
</clipPath>
</defs>
</svg>
