<svg width="276" height="128" viewBox="0 0 276 128" fill="none" xmlns="http://www.w3.org/2000/svg">
<path d="M74.25 22.6875C71.1354 22.6875 68.4635 21.5781 66.2292 19.3542C64.0052 17.1198 62.8958 14.4479 62.8958 11.3333C62.8958 8.23958 64.0052 5.57813 66.2292 3.35417C68.4635 1.11979 71.1354 0 74.25 0C77.125 0 79.6146 0.947916 81.7292 2.83333C79.6875 5.25 78.6667 8.08333 78.6667 11.3333C78.6667 14.599 79.6875 17.4792 81.7292 19.9792C79.5313 21.7865 77.0417 22.6875 74.25 22.6875ZM92.2917 22.6875C89.1927 22.6875 86.526 21.5781 84.2917 19.3542C82.0521 17.1198 80.9375 14.4479 80.9375 11.3333C80.9375 8.23958 82.0521 5.57813 84.2917 3.35417C86.526 1.11979 89.1927 0 92.2917 0C95.3854 0 98.0521 1.11979 100.292 3.35417C102.526 5.57813 103.646 8.23958 103.646 11.3333C103.646 14.4479 102.526 17.1198 100.292 19.3542C98.0521 21.5781 95.3854 22.6875 92.2917 22.6875ZM112.729 56.875C112.729 59.0729 112.615 61.1875 112.396 63.2292H112.729V85.8125H105.583C100.885 94.2813 94.2396 100.958 85.6458 105.833C77.0625 110.719 67.2813 113.167 56.3125 113.167C48.1302 113.167 40.6146 111.781 33.7708 109.021C26.9219 106.255 20.9635 102.359 15.8958 97.3333C10.8229 92.3021 6.90625 86.3646 4.14583 79.5208C1.38021 72.6615 0 65.1146 0 56.875H22.5833C22.5833 63.599 24.0729 69.5 27.0625 74.5833C30.0625 79.6563 34.1302 83.5833 39.2708 86.375C44.4219 89.1771 50.2135 90.5833 56.6458 90.5833C60.6563 90.5833 64.401 90.0104 67.875 88.875C71.3594 87.7344 74.5052 86.1094 77.3125 84C73.6042 83.0833 70.1563 81.474 66.9792 79.1667C63.7969 76.8646 61.2604 73.8542 59.375 70.1458C57.4844 66.4375 56.5417 62.0156 56.5417 56.875C56.5417 50.6667 57.901 45.5 60.625 41.375C63.3438 37.25 66.8229 34.1458 71.0625 32.0625C75.2969 29.9792 79.7292 28.9063 84.3542 28.8333C89.1146 28.75 93.651 29.75 97.9583 31.8333C102.276 33.9167 105.818 37.0417 108.583 41.2083C111.344 45.3646 112.729 50.5833 112.729 56.875ZM84.6875 50.3958C83.1042 50.3958 81.625 50.9271 80.25 51.9792C78.8854 53.0365 78.2083 54.6667 78.2083 56.875C78.2083 58.9167 78.8333 60.4688 80.0833 61.5208C81.3333 62.5781 82.7135 63.1458 84.2292 63.2292H84.6875C86.1146 63.1458 87.4375 62.6771 88.6458 61.8125C89.8646 60.9375 90.6302 59.6667 90.9375 58C91.0052 57.849 91.0417 57.6615 91.0417 57.4375C91.0417 57.2031 91.0417 57.0156 91.0417 56.875C91.0417 54.6667 90.375 53.0365 89.0417 51.9792C87.7188 50.9271 86.2708 50.3958 84.6875 50.3958Z" fill="#681F00"/>
<path d="M104.793 85.8125V63.2292H135.21V40.75H157.793V85.8125H104.793ZM125.793 115.208C122.678 115.208 120.007 114.089 117.772 111.854C115.548 109.63 114.439 106.964 114.439 103.854C114.439 100.755 115.548 98.0885 117.772 95.8542C120.007 93.6146 122.678 92.5 125.793 92.5C128.585 92.5 131.074 93.4063 133.272 95.2292C131.23 97.7292 130.21 100.604 130.21 103.854C130.21 107.115 131.23 109.958 133.272 112.375C131.158 114.26 128.668 115.208 125.793 115.208ZM143.835 115.208C140.736 115.208 138.069 114.089 135.835 111.854C133.595 109.63 132.48 106.964 132.48 103.854C132.48 100.755 133.595 98.0885 135.835 95.8542C138.069 93.6146 140.736 92.5 143.835 92.5C146.928 92.5 149.595 93.6146 151.835 95.8542C154.069 98.0885 155.189 100.755 155.189 103.854C155.189 106.964 154.069 109.63 151.835 111.854C149.595 114.089 146.928 115.208 143.835 115.208Z" fill="#681F00"/>
<path d="M196.737 22.6875C193.638 22.6875 190.972 21.5781 188.737 19.3542C186.498 17.1198 185.383 14.4479 185.383 11.3333C185.383 8.23958 186.498 5.57813 188.737 3.35417C190.972 1.11979 193.638 0 196.737 0C199.831 0 202.498 1.11979 204.737 3.35417C206.972 5.57813 208.091 8.23958 208.091 11.3333C208.091 14.4479 206.972 17.1198 204.737 19.3542C202.498 21.5781 199.831 22.6875 196.737 22.6875ZM149.862 85.8125V63.2292H169.946C169.789 62.2448 169.659 61.2448 169.55 60.2292C169.435 59.2031 169.383 58.1563 169.383 57.0833C169.383 50.6563 170.743 45.3229 173.466 41.0833C176.185 36.849 179.701 33.6771 184.008 31.5625C188.326 29.4375 192.831 28.4115 197.529 28.4792C202.222 28.4792 206.685 29.5417 210.925 31.6667C215.159 33.7813 218.638 36.9583 221.362 41.2083C224.097 45.4479 225.466 50.7396 225.466 57.0833C225.466 63.4479 224.097 68.7656 221.362 73.0417C218.638 77.3229 215.138 80.5208 210.862 82.6458C206.597 84.7604 202.118 85.8125 197.425 85.8125H149.862ZM197.425 63.6667C199.008 63.6667 200.477 63.1198 201.841 62.0208C203.201 60.9271 203.883 59.2813 203.883 57.0833C203.883 54.8906 203.222 53.2656 201.904 52.2083C200.581 51.1563 199.123 50.625 197.529 50.625C195.862 50.625 194.368 51.1563 193.05 52.2083C191.727 53.2656 191.071 54.8906 191.071 57.0833C191.071 59.2813 191.727 60.9115 193.05 61.9792C194.368 63.0365 195.826 63.599 197.425 63.6667Z" fill="#681F00"/>
<path d="M227.95 127.021L212.075 111.125L259.866 63.2291L275.741 79.2291L227.95 127.021Z" fill="#681F00"/>
</svg>
