<svg width="54" height="54" viewBox="0 0 54 54" fill="none" xmlns="http://www.w3.org/2000/svg">
<path d="M27 30.25C24.6794 30.25 22.4538 31.1719 20.8128 32.8128C19.1719 34.4538 18.25 36.6794 18.25 39C18.25 41.3206 19.1719 43.5462 20.8128 45.1872C22.4538 46.8281 24.6794 47.75 27 47.75C29.3206 47.75 31.5462 46.8281 33.1872 45.1872C34.8281 43.5462 35.75 41.3206 35.75 39C35.75 36.6794 34.8281 34.4538 33.1872 32.8128C31.5462 31.1719 29.3206 30.25 27 30.25ZM23.25 39C23.25 38.0054 23.6451 37.0516 24.3483 36.3483C25.0516 35.6451 26.0054 35.25 27 35.25C27.9946 35.25 28.9484 35.6451 29.6517 36.3483C30.3549 37.0516 30.75 38.0054 30.75 39C30.75 39.9946 30.3549 40.9484 29.6517 41.6516C28.9484 42.3549 27.9946 42.75 27 42.75C26.0054 42.75 25.0516 42.3549 24.3483 41.6516C23.6451 40.9484 23.25 39.9946 23.25 39Z" fill="#F5E8C1"/>
<path d="M40.815 11.79L32.8675 0.647522L3.645 23.9925L2.025 23.975V24H0.75V54H53.25V24H50.845L46.06 10.0025L40.815 11.79ZM45.5625 24H20.4925L39.165 17.635L42.97 16.4175L45.5625 24ZM35.875 13.475L16.6 20.045L31.865 7.85002L35.875 13.475ZM5.75 44.4225V33.5725C6.80544 33.2 7.76413 32.596 8.55577 31.8048C9.34741 31.0136 9.95193 30.0553 10.325 29H43.675C44.0478 30.0557 44.6521 31.0146 45.4438 31.8062C46.2355 32.5979 47.1943 33.2023 48.25 33.575V44.425C47.1943 44.7978 46.2355 45.4022 45.4438 46.1938C44.6521 46.9855 44.0478 47.9443 43.675 49H10.33C9.95546 47.9442 9.34991 46.9854 8.55755 46.1934C7.76519 45.4015 6.806 44.7965 5.75 44.4225Z" fill="#F5E8C1"/>
</svg>
